<?xml version="1.0" encoding="utf-8"?>
<!-- Generator: Adobe Illustrator 21.0.0, SVG Export Plug-In . SVG Version: 6.00 Build 0)  -->
<svg version="1.1" id="Layer_1" xmlns="http://www.w3.org/2000/svg" xmlns:xlink="http://www.w3.org/1999/xlink" x="0px" y="0px"
	 viewBox="0 0 46.7 41" style="enable-background:new 0 0 46.7 41;" xml:space="preserve">
<style type="text/css">
	.st0{fill:#2B2B2B;}
</style>
<path class="st0" d="M32,0c4.9,2.7,9.8,5.5,14.8,8.2c-4.9,2.5-9.8,4.9-14.8,7.4c0-1.9,0-3.8,0-5.7c-6.6,0-13.1,0-19.7,0
	c-0.5,0.1-2,0.4-3.3,1.6c-1.6,1.6-1.6,3.7-1.6,4.1c0,3.8,0,7.7,0,11.5c-1.6,0.8-3.3,1.6-4.9,2.5c0-5.5,0-10.9,0-16.4
	c0.2-1,0.7-3.1,2.5-4.9c2.8-3.1,6.6-3.3,7.4-3.3c6.6,0,13.1,0,19.7,0C32,3.3,32,1.6,32,0z"/>
<path class="st0" d="M14.8,41C9.8,38.3,4.9,35.5,0,32.8c4.9-2.5,9.8-4.9,14.8-7.4c0,1.9,0,3.8,0,5.7c6.6,0,13.1,0,19.7,0
	c0.5-0.1,2-0.4,3.3-1.6c1.6-1.6,1.6-3.7,1.6-4.1c0-3.8,0-7.7,0-11.5c1.6-0.8,3.3-1.6,4.9-2.5c0,5.5,0,10.9,0,16.4
	c-0.2,1-0.7,3.1-2.5,4.9c-2.8,3.1-6.6,3.3-7.4,3.3c-6.6,0-13.1,0-19.7,0C14.8,37.7,14.8,39.4,14.8,41z"/>
</svg>
