<?xml version="1.0" encoding="utf-8"?>
<!-- Generator: Adobe Illustrator 21.0.0, SVG Export Plug-In . SVG Version: 6.00 Build 0)  -->
<svg version="1.1" id="Layer_1" xmlns="http://www.w3.org/2000/svg" xmlns:xlink="http://www.w3.org/1999/xlink" x="0px" y="0px"
	 viewBox="0 0 45.9 36.1" style="enable-background:new 0 0 45.9 36.1;" xml:space="preserve">
<style type="text/css">
	.st0{fill:#2B2B2B;}
</style>
<path class="st0" d="M32.4,0c4.5,2.7,9,5.5,13.6,8.2c-4.5,2.5-9,4.9-13.6,7.4c0-1.7,0-3.4,0-5c0,0-1.5,0-1.5,0c-1.5,0-1.5,0-1.5,0
	c-1.5,0-5.7,0.3-12.8,15.2c-0.7,1.6-2.3,4.8-5.3,6.6c-0.9,0.5-1.7,0.8-2.3,0.9c-2.3,0-6.8,0-9,0c0-1.9,0-3.8,0-5.7
	c1.8,0,3.5,0,5.3,0c0.5-0.1,3.6-0.3,4.5-0.9c0.9-0.7,1.3-1.6,1.5-1.9C19.4,9.6,23.7,5.5,28.6,4.9c0.3,0,0.8-0.1,1.5,0
	c1.3,0,1,0,2.3,0C32.4,3.2,32.4,1.6,32.4,0z"/>
<path class="st0" d="M13.6,4.9C11.8,3.6,10,3.2,9,3C6,3,3,3,0,3c0,1.7,0,3.5,0,5.2c2.8,0,5.5,0,8.3,0c1.5,0,3.1,0.9,4.5,2.5
	c1.2,1.3,1.7,2.8,1.9,3.7c0.9-1.3,1.9-2.6,2.8-3.9C17.2,9.4,16.1,6.8,13.6,4.9z"/>
<path class="st0" d="M22,25.9c1.4,1.9,2.2,2.8,3.4,3.7c0.8,0.6,2.2,1.4,4.3,1.7c1.4,0,1.3,0,2.8,0c0,1.6,0,3.2,0,4.8
	c4-2.5,8-4.9,11.9-7.4c-4-2.5-8-4.9-11.9-7.4c0,1.5,0,3.1,0,4.6c-0.3,0-1.6,0-1.9,0c-0.8,0-0.8,0-0.9,0c-1.1,0-2.4-0.6-6.8-6.5
	c-0.9,1.2-1.7,2.5-2.6,3.7C20.9,24.1,20.9,24.4,22,25.9z"/>
</svg>
