<?xml version="1.0" encoding="utf-8"?>
<!-- Generator: Adobe Illustrator 21.0.0, SVG Export Plug-In . SVG Version: 6.00 Build 0)  -->
<svg version="1.1" id="Layer_1" xmlns="http://www.w3.org/2000/svg" xmlns:xlink="http://www.w3.org/1999/xlink" x="0px" y="0px"
	 viewBox="0 0 39 37" style="enable-background:new 0 0 39 37;" xml:space="preserve">
<style type="text/css">
	.st0{fill:#2B2B2B;}
</style>
<path class="st0" d="M0,10c0,5,0,10,0,15c3.7,0.7,7.3,1.3,11,2c3.7,3.3,7.3,6.7,11,10c0-12.3,0-24.7,0-37c-3.7,2.7-7.3,5.3-11,8
	C7.3,8.7,3.7,9.3,0,10z"/>
<path class="st0" d="M25.1,7c-1.1,0.3,1.3,5,1.3,11S24,28.7,25.1,29c0.3,0.1,0.8-0.3,1.3-0.8c3.4-3.3,3.8-7.8,3.8-10.2
	c0-2.4-0.4-6.9-3.8-10.2C25.9,7.3,25.4,6.9,25.1,7z"/>
<path class="st0" d="M30.3,2c-1.3,0.5,3.6,7.4,3.6,16c0,8.6-5,15.5-3.6,16c0.4,0.1,1.2-0.5,1.8-1.1C39,26.4,39,18,39,18
	s0-8.4-6.8-14.9C31.5,2.5,30.7,1.9,30.3,2z"/>
</svg>
